# Blender v3.1.2 OBJ File: 'vial.blend'
# www.blender.org
mtllib vial.mtl
o Circle
v 0.000000 0.000000 0.000000
v 0.000000 0.000000 -1.000000
v -0.866025 0.000000 -0.500000
v -0.866025 0.000000 0.500000
v 0.000000 0.000000 1.000000
v 0.866025 0.000000 0.500000
v 0.866025 0.000000 -0.500000
v 0.000000 2.156462 -1.000000
v -0.866025 2.156462 -0.500000
v -0.866025 2.156462 0.500000
v 0.000000 2.156462 1.000000
v 0.866025 2.156462 0.500000
v 0.866025 2.156462 -0.500000
v 0.000000 2.421895 -0.814820
v -0.705655 2.421895 -0.407410
v -0.705655 2.421895 0.407410
v 0.000000 2.421895 0.814820
v 0.705655 2.421895 0.407410
v 0.705655 2.421895 -0.407410
v 0.000000 2.610929 -0.814820
v -0.705655 2.610929 -0.407410
v -0.705655 2.610929 0.407410
v 0.000000 2.610929 0.814820
v 0.705655 2.610929 0.407410
v 0.705655 2.610929 -0.407410
v 0.000000 2.696989 -0.876424
v -0.759005 2.696989 -0.438212
v -0.759005 2.696989 0.438212
v 0.000000 2.696989 0.876424
v 0.759005 2.696989 0.438212
v 0.759005 2.696989 -0.438212
v 0.000000 2.752821 -0.876424
v -0.759005 2.752821 -0.438212
v -0.759005 2.752821 0.438212
v 0.000000 2.752821 0.876424
v 0.759005 2.752821 0.438212
v 0.759005 2.752821 -0.438212
v 0.000000 2.807717 -0.796076
v -0.689422 2.807717 -0.398038
v -0.689422 2.807717 0.398038
v 0.000000 2.807717 0.796076
v 0.689422 2.807717 0.398038
v 0.689422 2.807717 -0.398038
v 0.000000 2.807717 -0.681634
v -0.590312 2.807717 -0.340817
v -0.590312 2.807717 0.340817
v 0.000000 2.807717 0.681634
v 0.590312 2.807717 0.340817
v 0.590312 2.807717 -0.340817
v 0.000000 3.305976 -0.760109
v -0.658274 3.305976 -0.380054
v -0.658274 3.305976 0.380054
v 0.000000 3.305976 0.760109
v 0.658274 3.305976 0.380054
v 0.658274 3.305976 -0.380054
vt 0.466944 0.686009
vt 0.370661 0.728603
vt 0.381916 0.623922
vt 0.468683 0.566660
vt 0.375709 0.520149
vt 0.451853 0.451874
vt 0.354653 0.420069
vt 0.420379 0.350987
vt 0.327689 0.328608
vt 0.406962 0.916820
vt 0.300362 0.929841
vt 0.342386 0.831012
vt 0.445213 0.804294
vt 0.153384 0.766162
vt 0.182819 0.694523
vt 0.195359 0.620210
vt 0.101637 0.835194
vt 0.173164 0.467437
vt 0.130457 0.386756
vt 0.192325 0.544476
vt 0.131329 0.753111
vt 0.158486 0.686984
vt 0.146232 0.477675
vt 0.106710 0.411205
vt 0.170060 0.618070
vt 0.166422 0.547756
vt 0.085423 0.811791
vt 0.117659 0.744701
vt 0.144274 0.682619
vt 0.131157 0.484150
vt 0.092189 0.419971
vt 0.155331 0.616998
vt 0.151481 0.550002
vt 0.072566 0.801626
vt 0.062895 0.797633
vt 0.110221 0.740088
vt 0.143422 0.551427
vt 0.123736 0.487503
vt 0.136522 0.680324
vt 0.147297 0.616547
vt 0.083250 0.422220
vt 0.119483 0.489514
vt 0.078507 0.425151
vt 0.142663 0.616358
vt 0.138795 0.552334
vt 0.058596 0.794005
vt 0.106195 0.737665
vt 0.132054 0.679058
vt 0.131413 0.553582
vt 0.112422 0.492732
vt 0.125034 0.676862
vt 0.135310 0.615863
vt 0.100176 0.733840
vt 0.072874 0.433699
vt 0.054803 0.785691
vt 0.126748 0.615089
vt 0.122786 0.554855
vt 0.051492 0.775723
vt 0.093051 0.728956
vt 0.104165 0.496374
vt 0.116922 0.674109
vt 0.067984 0.443640
vt 0.792240 0.036660
vt 0.845075 0.012742
vt 0.852972 0.049344
vt 0.806844 0.077016
vt 0.910291 0.014960
vt 0.906378 0.065951
vt 0.620766 0.056228
vt 0.678712 0.058670
vt 0.680246 0.101559
vt 0.615629 0.098836
vt 0.736334 0.052094
vt 0.744502 0.094226
vt 0.979402 0.014872
vt 0.983445 0.065852
vt 0.906548 0.199434
vt 0.774312 0.202206
vt 0.654468 0.160873
vn 0.0000 1.0000 0.0000
vn -0.5000 0.0000 0.8660
vn 0.5000 0.0000 0.8660
vn -1.0000 0.0000 0.0000
vn -0.5000 0.0000 -0.8660
vn 0.5000 0.0000 -0.8660
vn 1.0000 0.0000 -0.0000
vn -0.4280 -0.5171 0.7412
vn -0.4280 -0.5171 -0.7412
vn 0.8559 -0.5171 -0.0000
vn -0.8559 -0.5171 0.0000
vn 0.4280 -0.5171 -0.7412
vn 0.4280 -0.5171 0.7412
vn -0.8499 0.5269 0.0000
vn 0.4250 0.5269 -0.7361
vn 0.4250 0.5269 0.7361
vn -0.4250 0.5269 0.7361
vn -0.4250 0.5269 -0.7361
vn 0.8499 0.5269 -0.0000
vn 0.3097 -0.7851 -0.5364
vn 0.3097 -0.7851 0.5364
vn -0.3097 -0.7851 0.5364
vn -0.3097 -0.7851 -0.5364
vn 0.6194 -0.7851 -0.0000
vn -0.6194 -0.7851 0.0000
vn 0.0000 -1.0000 0.0000
vn 0.4954 0.1351 0.8581
vn -0.4954 0.1351 0.8581
vn -0.4954 0.1351 -0.8581
vn 0.9908 0.1351 -0.0000
vn -0.9908 0.1351 0.0000
vn 0.4954 0.1351 -0.8581
g Circle_Circle_Material.001
usemtl Material.001
s off
f 1/1/1 2/2/1 3/3/1
f 1/4/1 3/3/1 4/5/1
f 1/6/1 4/5/1 5/7/1
f 1/8/1 5/7/1 6/9/1
f 1/10/1 6/11/1 7/12/1
f 1/13/1 7/12/1 2/2/1
f 2/2/2 7/12/2 13/14/2 8/15/2
f 3/3/3 2/2/3 8/15/3 9/16/3
f 7/12/4 6/11/4 12/17/4 13/14/4
f 6/9/5 5/7/5 11/18/5 12/19/5
f 5/7/6 4/5/6 10/20/6 11/18/6
f 4/5/7 3/3/7 9/16/7 10/20/7
f 8/15/8 13/14/8 19/21/8 14/22/8
f 12/19/9 11/18/9 17/23/9 18/24/9
f 10/20/10 9/16/10 15/25/10 16/26/10
f 13/14/11 12/17/11 18/27/11 19/21/11
f 11/18/12 10/20/12 16/26/12 17/23/12
f 9/16/13 8/15/13 14/22/13 15/25/13
f 14/22/2 19/21/2 25/28/2 20/29/2
f 18/24/5 17/23/5 23/30/5 24/31/5
f 16/26/7 15/25/7 21/32/7 22/33/7
f 19/21/4 18/27/4 24/34/4 25/28/4
f 17/23/6 16/26/6 22/33/6 23/30/6
f 15/25/3 14/22/3 20/29/3 21/32/3
f 25/28/14 24/34/14 30/35/14 31/36/14
f 23/30/15 22/33/15 28/37/15 29/38/15
f 21/32/16 20/29/16 26/39/16 27/40/16
f 20/29/17 25/28/17 31/36/17 26/39/17
f 24/31/18 23/30/18 29/38/18 30/41/18
f 22/33/19 21/32/19 27/40/19 28/37/19
f 30/41/5 29/38/5 35/42/5 36/43/5
f 28/37/7 27/40/7 33/44/7 34/45/7
f 31/36/4 30/35/4 36/46/4 37/47/4
f 29/38/6 28/37/6 34/45/6 35/42/6
f 27/40/3 26/39/3 32/48/3 33/44/3
f 26/39/2 31/36/2 37/47/2 32/48/2
f 35/42/20 34/45/20 40/49/20 41/50/20
f 33/44/21 32/48/21 38/51/21 39/52/21
f 32/48/22 37/47/22 43/53/22 38/51/22
f 36/43/23 35/42/23 41/50/23 42/54/23
f 34/45/24 33/44/24 39/52/24 40/49/24
f 37/47/25 36/46/25 42/55/25 43/53/25
f 40/49/26 39/52/26 45/56/26 46/57/26
f 43/53/26 42/55/26 48/58/26 49/59/26
f 41/50/26 40/49/26 46/57/26 47/60/26
f 39/52/26 38/51/26 44/61/26 45/56/26
f 38/51/26 43/53/26 49/59/26 44/61/26
f 42/54/26 41/50/26 47/60/26 48/62/26
f 45/63/27 44/64/27 50/65/27 51/66/27
f 44/64/28 49/67/28 55/68/28 50/65/28
f 48/69/29 47/70/29 53/71/29 54/72/29
f 46/73/30 45/63/30 51/66/30 52/74/30
f 49/67/31 48/75/31 54/76/31 55/68/31
f 47/70/32 46/73/32 52/74/32 53/71/32
f 55/68/26 51/66/26 50/65/26
f 54/76/26 51/77/26 55/68/26
f 54/78/26 52/74/26 51/66/26
f 53/71/26 52/74/26 54/79/26
