# Blender v3.1.2 OBJ File: 'brokenBottle.blend'
# www.blender.org
mtllib vial.mtl
o Circle
v -0.050881 0.013933 -0.717515
v -0.137402 -0.181878 -1.694333
v -0.953197 0.009485 -1.148568
v -0.866676 0.205296 -0.171751
v 0.035640 0.209743 0.259302
v 0.851435 0.018380 -0.286462
v 0.764914 -0.177431 -1.263279
v -0.469367 2.844995 -0.004091
v -1.307579 2.426671 0.345774
v -1.340911 2.083182 1.284339
v -0.536031 2.158018 1.873039
v 0.302181 2.576342 1.523174
v 0.335513 2.919831 0.584610
v -0.559044 3.018938 0.253684
v -1.242036 2.678079 0.538761
v -1.269196 2.398197 1.303523
v -0.613363 2.459175 1.783207
v 0.069629 2.800034 1.498130
v 0.096789 3.079916 0.733369
v -0.618513 3.188116 0.313486
v -1.301506 2.847256 0.598563
v -1.328665 2.567375 1.363325
v -0.672833 2.628352 1.843010
v 0.010160 2.969211 1.557932
v 0.037319 3.249093 0.793171
v -0.643534 3.286296 0.282893
v -1.378163 2.919667 0.589523
v -1.407376 2.618625 1.412103
v -0.701960 2.684212 1.928054
v 0.032668 3.050842 1.621424
v 0.061882 3.351883 0.798844
v -0.661099 3.336263 0.300556
v -1.395728 2.969634 0.607186
v -1.424941 2.668592 1.429766
v -0.719525 2.734179 1.945717
v 0.015104 3.100808 1.639087
v 0.044317 3.401850 0.816507
v -0.681047 3.357794 0.393334
v -1.348328 3.024776 0.671853
v -1.374863 2.751333 1.419022
v -0.734117 2.810907 1.887672
v -0.066836 3.143925 1.609153
v -0.040302 3.417368 0.861984
v -0.684862 3.318484 0.500745
v -1.256215 3.033340 0.739225
v -1.278935 2.799206 1.378983
v -0.730302 2.850217 1.780260
v -0.158949 3.135361 1.541781
v -0.136229 3.369494 0.902023
v -0.838997 3.791360 0.584719
v -1.476130 3.473388 0.850654
v -1.501466 3.212299 1.564066
v -0.889669 3.269182 2.011542
v -0.252537 3.587154 1.745607
v -0.227201 3.848243 1.032195
v -0.239856 2.192091 -0.234885
v 0.660231 1.996086 0.258077
v -1.021819 1.613753 0.058417
v 0.563442 1.833117 1.260453
v -0.235679 1.303589 1.571008
v -1.115467 1.441848 1.057635
v -0.014775 1.111009 -1.964363
v -0.847014 1.129005 -1.382390
v 0.859907 0.824106 -1.472459
v 0.964533 1.210812 -0.535512
v 0.137567 1.284395 0.034852
v -0.744050 1.498183 -0.441782
vt 0.466944 0.686009
vt 0.370661 0.728603
vt 0.381916 0.623922
vt 0.468683 0.566660
vt 0.375709 0.520149
vt 0.451853 0.451874
vt 0.354653 0.420069
vt 0.420379 0.350987
vt 0.327689 0.328608
vt 0.406962 0.916820
vt 0.300362 0.929841
vt 0.342386 0.831012
vt 0.445213 0.804294
vt 0.244720 0.705753
vt 0.215667 0.787533
vt 0.153384 0.766162
vt 0.182819 0.694523
vt 0.256837 0.621433
vt 0.195359 0.620210
vt 0.167124 0.866384
vt 0.101637 0.835194
vt 0.195453 0.367594
vt 0.232972 0.451828
vt 0.173164 0.467437
vt 0.130457 0.386756
vt 0.252757 0.536459
vt 0.192325 0.544476
vt 0.131329 0.753111
vt 0.158486 0.686984
vt 0.146232 0.477675
vt 0.106710 0.411205
vt 0.170060 0.618070
vt 0.166422 0.547756
vt 0.085423 0.811791
vt 0.117659 0.744701
vt 0.144274 0.682619
vt 0.131157 0.484150
vt 0.092189 0.419971
vt 0.155331 0.616998
vt 0.151481 0.550002
vt 0.072566 0.801626
vt 0.062895 0.797633
vt 0.110221 0.740088
vt 0.143422 0.551427
vt 0.123736 0.487503
vt 0.136522 0.680324
vt 0.147297 0.616547
vt 0.083250 0.422220
vt 0.119483 0.489514
vt 0.078507 0.425151
vt 0.142663 0.616358
vt 0.138795 0.552334
vt 0.058596 0.794005
vt 0.106195 0.737665
vt 0.132054 0.679058
vt 0.131413 0.553582
vt 0.112422 0.492732
vt 0.125034 0.676862
vt 0.135310 0.615863
vt 0.100176 0.733840
vt 0.072874 0.433699
vt 0.054803 0.785691
vt 0.126748 0.615089
vt 0.122786 0.554855
vt 0.051492 0.775723
vt 0.093051 0.728956
vt 0.104165 0.496374
vt 0.116922 0.674109
vt 0.067984 0.443640
vt 0.792240 0.036660
vt 0.845075 0.012742
vt 0.852972 0.049344
vt 0.806844 0.077016
vt 0.910291 0.014960
vt 0.906378 0.065951
vt 0.620766 0.056228
vt 0.678712 0.058670
vt 0.680246 0.101559
vt 0.615629 0.098836
vt 0.736334 0.052094
vt 0.744502 0.094226
vt 0.979402 0.014872
vt 0.983445 0.065852
vt 0.906548 0.199434
vt 0.774312 0.202206
vt 0.654468 0.160873
vt 0.226128 0.791122
vt 0.255117 0.707640
vt 0.267162 0.621639
vt 0.178124 0.871623
vt 0.243017 0.449206
vt 0.206369 0.364376
vt 0.262907 0.535113
vn 0.0924 0.9747 -0.2036
vn -0.5032 -0.4398 0.7439
vn 0.4455 -0.1551 0.8818
vn -0.9486 -0.2847 -0.1379
vn -0.4455 0.1551 -0.8818
vn 0.5032 0.4398 -0.7439
vn 0.9486 0.2847 0.1379
vn -0.2680 -0.8393 0.4731
vn -0.2186 -0.3300 -0.9183
vn 0.9746 -0.2191 -0.0456
vn -0.6493 -0.7065 -0.2816
vn 0.5934 -0.0863 -0.8003
vn 0.5440 -0.5956 0.5911
vn -0.9720 0.2295 0.0495
vn 0.2619 0.8454 -0.4656
vn 0.2129 0.3397 0.9161
vn -0.5934 0.0977 0.7989
vn -0.5444 0.6034 -0.5828
vn 0.6405 0.7135 0.2839
vn 0.5587 -0.4302 -0.7091
vn 0.5229 -0.7987 0.2978
vn -0.0647 -0.9750 0.2124
vn -0.0289 -0.6066 -0.7945
vn 0.8346 -0.5263 -0.1630
vn -0.3406 -0.8790 -0.3338
vn 0.3146 -0.8950 -0.3164
vn 0.3988 -0.0327 0.9164
vn -0.5411 -0.3148 0.7798
vn -0.4839 0.2746 -0.8309
vn 0.8974 0.4031 0.1794
vn -0.9825 -0.1612 -0.0939
vn 0.4561 0.5567 -0.6943
vn -0.4210 0.2235 0.8791
vn 0.5709 0.1156 0.8128
vn -0.9920 0.1079 0.0662
vn -0.5709 -0.1156 -0.8128
vn 0.4210 -0.2235 -0.8791
vn 0.9920 -0.1079 -0.0662
usemtl Material.001
s off
f 1/1/1 2/2/1 3/3/1
f 1/4/1 3/3/1 4/5/1
f 1/6/1 4/5/1 5/7/1
f 1/8/1 5/7/1 6/9/1
f 1/10/1 6/11/1 7/12/1
f 1/13/1 7/12/1 2/2/1
f 56/14/2 57/15/2 13/16/2 8/17/2
f 58/18/3 56/14/3 8/17/3 9/19/3
f 57/15/4 59/20/4 12/21/4 13/16/4
f 59/22/5 60/23/5 11/24/5 12/25/5
f 60/23/6 61/26/6 10/27/6 11/24/6
f 61/26/7 58/18/7 9/19/7 10/27/7
f 8/17/8 13/16/8 19/28/8 14/29/8
f 12/25/9 11/24/9 17/30/9 18/31/9
f 10/27/10 9/19/10 15/32/10 16/33/10
f 13/16/11 12/21/11 18/34/11 19/28/11
f 11/24/12 10/27/12 16/33/12 17/30/12
f 9/19/13 8/17/13 14/29/13 15/32/13
f 14/29/2 19/28/2 25/35/2 20/36/2
f 18/31/5 17/30/5 23/37/5 24/38/5
f 16/33/7 15/32/7 21/39/7 22/40/7
f 19/28/4 18/34/4 24/41/4 25/35/4
f 17/30/6 16/33/6 22/40/6 23/37/6
f 15/32/3 14/29/3 20/36/3 21/39/3
f 25/35/14 24/41/14 30/42/14 31/43/14
f 23/37/15 22/40/15 28/44/15 29/45/15
f 21/39/16 20/36/16 26/46/16 27/47/16
f 20/36/17 25/35/17 31/43/17 26/46/17
f 24/38/18 23/37/18 29/45/18 30/48/18
f 22/40/19 21/39/19 27/47/19 28/44/19
f 30/48/5 29/45/5 35/49/5 36/50/5
f 28/44/7 27/47/7 33/51/7 34/52/7
f 31/43/4 30/42/4 36/53/4 37/54/4
f 29/45/6 28/44/6 34/52/6 35/49/6
f 27/47/3 26/46/3 32/55/3 33/51/3
f 26/46/2 31/43/2 37/54/2 32/55/2
f 35/49/20 34/52/20 40/56/20 41/57/20
f 33/51/21 32/55/21 38/58/21 39/59/21
f 32/55/22 37/54/22 43/60/22 38/58/22
f 36/50/23 35/49/23 41/57/23 42/61/23
f 34/52/24 33/51/24 39/59/24 40/56/24
f 37/54/25 36/53/25 42/62/25 43/60/25
f 40/56/26 39/59/26 45/63/26 46/64/26
f 43/60/26 42/62/26 48/65/26 49/66/26
f 41/57/26 40/56/26 46/64/26 47/67/26
f 39/59/26 38/58/26 44/68/26 45/63/26
f 38/58/26 43/60/26 49/66/26 44/68/26
f 42/61/26 41/57/26 47/67/26 48/69/26
f 45/70/27 44/71/27 50/72/27 51/73/27
f 44/71/28 49/74/28 55/75/28 50/72/28
f 48/76/29 47/77/29 53/78/29 54/79/29
f 46/80/30 45/70/30 51/73/30 52/81/30
f 49/74/31 48/82/31 54/83/31 55/75/31
f 47/77/32 46/80/32 52/81/32 53/78/32
f 55/75/26 51/73/26 50/72/26
f 54/83/26 51/84/26 55/75/26
f 54/85/26 52/81/26 51/73/26
f 53/78/26 52/81/26 54/86/26
f 2/2/33 7/12/33 64/87/33 62/88/33
f 3/3/34 2/2/34 62/88/34 63/89/34
f 7/12/35 6/11/35 65/90/35 64/87/35
f 6/9/36 5/7/36 66/91/36 65/92/36
f 5/7/37 4/5/37 67/93/37 66/91/37
f 4/5/38 3/3/38 63/89/38 67/93/38
